<svg width="24" height="25" viewBox="0 0 24 25" fill="none" xmlns="http://www.w3.org/2000/svg">
<path d="M18.5981 19.5124L5.54382 6.4581C5.24647 6.16076 5.2403 5.67376 5.53022 5.38385C5.82013 5.09393 6.30713 5.1001 6.60448 5.39744L19.6588 18.4517C19.9561 18.7491 19.9623 19.2361 19.6724 19.526C19.3824 19.8159 18.8954 19.8097 18.5981 19.5124Z" fill="white"/>
<path d="M19.6589 6.10454L6.60459 19.1588C6.30724 19.4562 5.82024 19.4623 5.53033 19.1724C5.24042 18.8825 5.24658 18.3955 5.54393 18.0982L18.5982 5.04388C18.8956 4.74653 19.3826 4.74037 19.6725 5.03028C19.9624 5.3202 19.9562 5.80719 19.6589 6.10454Z" fill="white"/>
</svg>
